<svg height="235" viewBox="0 0 173 235" width="173" xmlns="http://www.w3.org/2000/svg"><path d="m86.5 228.8 81.1-222.6h-162.2z" fill="#f0de7f" stroke="#70683f" stroke-linecap="round" stroke-linejoin="round" stroke-width="4"/><path d="m55.1 72.7 5.4-10.9-7.6-3.4-5.5 10.9-7.4-3.3 5.5-10.8-7.8-3.4 2.8-6.4 8.1 3.5 6.2-12.3-8.7-3.8 2.8-6.4 8.9 3.9 5.5-10.8 7.5 3.2-5.5 10.9 7.7 3.4 5.4-10.9 7.5 3.3-5.5 10.8 7.7 3.4-2.8 6.4-8.1-3.5-6.1 12.3 8.6 3.8-2.8 6.4-8.9-3.9-5.5 10.8zm8.5-17.1 6.2-12.4-7.6-3.3-6.1 12.3z" fill="#70683f"/></svg>