<svg height="192" viewBox="0 0 192 192" width="192" xmlns="http://www.w3.org/2000/svg"><g fill="#bdffd9" stroke-width="4"><circle cx="96" cy="96" r="91" stroke="#7ba68d" stroke-miterlimit="10"/><g stroke="#512500" stroke-linecap="round" stroke-linejoin="round"><path d="m36.1 52.4 11.1 7.5"/><path d="m72.7 145.2-7.5 11.2"/><path d="m139.1 58.1-7.5 11.2"/><path d="m163.4 100.2 7.5 8.4"/><path d="m88.3 154.2 7.5 8.4"/><path d="m106 29.6 7.5 8.4"/><path d="m128.8 110.3-13.8 11.7"/><path d="m163.9 59.9-12.7 17.5"/><path d="m53.2 129.5-12.7 17.4"/><path d="m88.1 68.8 8 6.6"/><path d="m135.3 141.9 8 6.6"/><path d="m24.8 96 16.8 8.4"/><path d="m72.4 100.2-6.8 10.1"/><path d="m69 22.5 14.8 9.3"/></g></g></svg>